<svg xmlns="http://www.w3.org/2000/svg" xmlns:xlink="http://www.w3.org/1999/xlink" width="1920" zoomAndPan="magnify" viewBox="0 0 1440 809.999993" height="1080" preserveAspectRatio="xMidYMid meet" version="1.0"><defs><g/><clipPath id="4de1135ae8"><path d="M 39 149.753906 L 334 149.753906 L 334 660.503906 L 39 660.503906 Z M 39 149.753906 " clip-rule="nonzero"/></clipPath><clipPath id="96c2097f7f"><path d="M 20 329 L 352.945312 329 L 352.945312 481 L 20 481 Z M 20 329 " clip-rule="nonzero"/></clipPath></defs><g fill="#232343" fill-opacity="1"><g transform="translate(42.221912, 524.331216)"><g><path d="M 247.734375 38.59375 C 265.710938 38.59375 282.445312 32.367188 297.9375 19.921875 L 314.53125 42.328125 C 295.445312 57.535156 273.039062 65.140625 247.3125 65.140625 C 226.84375 65.140625 207.753906 59.472656 190.046875 48.140625 C 172.335938 36.796875 158.921875 21.71875 149.796875 2.90625 C 110.234375 1.25 78.003906 -12.992188 53.109375 -39.828125 C 28.492188 -65.835938 16.1875 -98.34375 16.1875 -137.34375 C 16.1875 -177.1875 29.050781 -210.382812 54.78125 -236.9375 C 81.050781 -264.320312 114.660156 -278.015625 155.609375 -278.015625 C 196.546875 -278.015625 230.15625 -264.320312 256.4375 -236.9375 C 282.164062 -210.382812 295.03125 -177.1875 295.03125 -137.34375 C 295.03125 -102.488281 284.519531 -72.195312 263.5 -46.46875 C 242.46875 -20.46875 215.078125 -4.703125 181.328125 0.828125 C 189.359375 16.867188 203.054688 28.210938 222.421875 34.859375 C 229.609375 37.347656 238.046875 38.59375 247.734375 38.59375 Z M 155.609375 -26.96875 C 188.253906 -26.96875 214.671875 -37.617188 234.859375 -58.921875 C 254.222656 -79.390625 263.90625 -105.53125 263.90625 -137.34375 C 263.90625 -169.15625 254.222656 -195.300781 234.859375 -215.78125 C 214.671875 -237.082031 188.253906 -247.734375 155.609375 -247.734375 C 122.960938 -247.734375 96.539062 -237.082031 76.34375 -215.78125 C 56.976562 -195.300781 47.296875 -169.15625 47.296875 -137.34375 C 47.296875 -105.53125 56.976562 -79.390625 76.34375 -58.921875 C 96.539062 -37.617188 122.960938 -26.96875 155.609375 -26.96875 Z M 155.609375 -26.96875 "/></g></g></g><g fill="#232343" fill-opacity="1"><g transform="translate(353.415599, 524.331216)"><g><path d="M 176.765625 0 L 176.765625 -32.359375 C 169.296875 -22.398438 160.164062 -13.960938 149.375 -7.046875 C 138.59375 -0.140625 126.285156 3.3125 112.453125 3.3125 C 98.617188 3.3125 86.722656 1.378906 76.765625 -2.484375 C 66.804688 -6.359375 58.09375 -12.171875 50.625 -19.921875 C 33.46875 -36.796875 24.890625 -59.0625 24.890625 -86.71875 L 24.890625 -207.484375 L 56.015625 -207.484375 L 56.015625 -87.5625 C 56.015625 -68.46875 61.410156 -53.25 72.203125 -41.90625 C 82.992188 -30.5625 96.960938 -24.890625 114.109375 -24.890625 C 131.535156 -24.890625 146.335938 -30.703125 158.515625 -42.328125 C 170.679688 -54.222656 176.765625 -69.4375 176.765625 -87.96875 L 176.765625 -207.484375 L 207.890625 -207.484375 L 207.890625 0 Z M 176.765625 0 "/></g></g></g><g fill="#232343" fill-opacity="1"><g transform="translate(588.263071, 524.331216)"><g><path d="M 188.796875 -33.203125 C 172.203125 -8.859375 147.445312 3.3125 114.53125 3.3125 C 84.65625 3.3125 60.3125 -7.054688 41.5 -27.796875 C 23.238281 -48.273438 14.109375 -73.585938 14.109375 -103.734375 C 14.109375 -133.890625 23.238281 -159.203125 41.5 -179.671875 C 60.3125 -200.421875 85.34375 -210.796875 116.59375 -210.796875 C 147.851562 -210.796875 171.921875 -198.484375 188.796875 -173.859375 L 188.796875 -207.484375 L 219.921875 -207.484375 L 219.921875 0 L 188.796875 0 Z M 118.671875 -24.890625 C 141.078125 -24.890625 158.785156 -32.640625 171.796875 -48.140625 C 184.242188 -62.796875 190.46875 -81.328125 190.46875 -103.734375 C 190.46875 -126.140625 184.242188 -144.675781 171.796875 -159.34375 C 158.785156 -174.832031 141.078125 -182.578125 118.671875 -182.578125 C 96.546875 -182.578125 78.566406 -174.832031 64.734375 -159.34375 C 51.734375 -144.675781 45.234375 -126.140625 45.234375 -103.734375 C 45.234375 -81.328125 51.734375 -62.796875 64.734375 -48.140625 C 78.566406 -32.640625 96.546875 -24.890625 118.671875 -24.890625 Z M 118.671875 -24.890625 "/></g></g></g><g fill="#232343" fill-opacity="1"><g transform="translate(835.143367, 524.331216)"><g><path d="M 148.96875 -151.875 C 146.195312 -173.445312 128.835938 -184.234375 96.890625 -184.234375 C 64.941406 -184.234375 48.96875 -174.273438 48.96875 -154.359375 C 48.96875 -146.054688 52.351562 -139.757812 59.125 -135.46875 C 65.90625 -131.1875 74.410156 -127.660156 84.640625 -124.890625 C 94.878906 -122.128906 106.015625 -119.570312 118.046875 -117.21875 C 130.085938 -114.875 141.222656 -111.554688 151.453125 -107.265625 C 161.691406 -102.972656 170.195312 -97.09375 176.96875 -89.625 C 183.75 -82.15625 187.140625 -71.921875 187.140625 -58.921875 C 187.140625 -38.722656 179.53125 -23.300781 164.3125 -12.65625 C 149.101562 -2.007812 128.5 3.3125 102.5 3.3125 C 74.832031 3.3125 52.835938 -3.597656 36.515625 -17.421875 C 21.578125 -29.597656 13.554688 -45.503906 12.453125 -65.140625 L 44.8125 -65.140625 C 46.75 -46.054688 57.539062 -33.195312 77.1875 -26.5625 C 84.375 -24.34375 91.492188 -23.234375 98.546875 -23.234375 C 105.597656 -23.234375 112.164062 -23.648438 118.25 -24.484375 C 124.34375 -25.316406 130.296875 -26.835938 136.109375 -29.046875 C 149.378906 -34.304688 156.015625 -43.296875 156.015625 -56.015625 C 156.015625 -64.585938 152.625 -71.15625 145.84375 -75.71875 C 139.070312 -80.289062 130.566406 -84.03125 120.328125 -86.9375 C 110.097656 -89.84375 98.960938 -92.46875 86.921875 -94.8125 C 74.890625 -97.164062 63.753906 -100.414062 53.515625 -104.5625 C 43.285156 -108.71875 34.78125 -114.390625 28 -121.578125 C 21.226562 -128.773438 17.84375 -138.734375 17.84375 -151.453125 C 17.84375 -170.265625 24.6875 -184.859375 38.375 -195.234375 C 52.070312 -205.609375 72.335938 -210.796875 99.171875 -210.796875 C 124.617188 -210.796875 144.675781 -204.707031 159.34375 -192.53125 C 171.507812 -182.300781 178.5625 -168.75 180.5 -151.875 Z M 148.96875 -151.875 "/></g></g></g><g fill="#232343" fill-opacity="1"><g transform="translate(1035.137186, 524.331216)"><g><path d="M 188.796875 -33.203125 C 172.203125 -8.859375 147.445312 3.3125 114.53125 3.3125 C 84.65625 3.3125 60.3125 -7.054688 41.5 -27.796875 C 23.238281 -48.273438 14.109375 -73.585938 14.109375 -103.734375 C 14.109375 -133.890625 23.238281 -159.203125 41.5 -179.671875 C 60.3125 -200.421875 85.34375 -210.796875 116.59375 -210.796875 C 147.851562 -210.796875 171.921875 -198.484375 188.796875 -173.859375 L 188.796875 -207.484375 L 219.921875 -207.484375 L 219.921875 0 L 188.796875 0 Z M 118.671875 -24.890625 C 141.078125 -24.890625 158.785156 -32.640625 171.796875 -48.140625 C 184.242188 -62.796875 190.46875 -81.328125 190.46875 -103.734375 C 190.46875 -126.140625 184.242188 -144.675781 171.796875 -159.34375 C 158.785156 -174.832031 141.078125 -182.578125 118.671875 -182.578125 C 96.546875 -182.578125 78.566406 -174.832031 64.734375 -159.34375 C 51.734375 -144.675781 45.234375 -126.140625 45.234375 -103.734375 C 45.234375 -81.328125 51.734375 -62.796875 64.734375 -48.140625 C 78.566406 -32.640625 96.546875 -24.890625 118.671875 -24.890625 Z M 118.671875 -24.890625 "/></g></g></g><g fill="#232343" fill-opacity="1"><g transform="translate(1282.017483, 524.331216)"><g><path d="M 136.515625 -210.796875 L 136.515625 -179.671875 L 132.78125 -179.671875 C 110.375 -179.671875 92.117188 -170.679688 78.015625 -152.703125 C 64.734375 -135.546875 58.09375 -115.078125 58.09375 -91.296875 L 58.09375 0 L 26.96875 0 L 26.96875 -207.484375 L 58.09375 -207.484375 L 58.09375 -156.4375 C 64.726562 -178.007812 79.113281 -193.914062 101.25 -204.15625 C 110.375 -208.582031 121.4375 -210.796875 134.4375 -210.796875 Z M 136.515625 -210.796875 "/></g></g></g><g clip-path="url(#4de1135ae8)"><path fill="#232343" d="M 152.613281 385.53125 C 152.613281 385.53125 203.917969 335.398438 218.070312 318.300781 C 283.96875 238.695312 333.941406 149.75 333.941406 149.75 C 333.941406 149.75 283.96875 243.675781 248.847656 340.996094 C 241.398438 361.632812 220.480469 424.726562 220.480469 424.726562 C 220.480469 424.726562 156.359375 494.9375 137.429688 519.550781 C 111.03125 553.882812 39.15625 660.503906 39.15625 660.503906 C 39.15625 660.503906 96.457031 543.039062 112.5625 504.003906 C 124.820312 474.296875 152.613281 385.53125 152.613281 385.53125 " fill-opacity="1" fill-rule="nonzero"/></g><g clip-path="url(#96c2097f7f)"><path fill="#737373" d="M 352.957031 415.933594 C 352.957031 390.148438 336.992188 369.164062 314.976562 357.421875 C 304.335938 351.746094 292.449219 348.21875 280.578125 346.359375 C 274.621094 345.425781 261.953125 342.957031 253.886719 343.582031 C 253.886719 343.582031 298.890625 344.421875 327.402344 388.164062 C 339.523438 406.761719 335.457031 442.417969 303.523438 445.273438 C 240.320312 450.90625 217 392.675781 175.855469 359.371094 C 150.804688 339.097656 120.03125 328.542969 85.640625 329.351562 C 59.882812 329.960938 27.34375 342.492188 21.121094 373.777344 C 14.707031 406.054688 40.6875 430.902344 68.707031 439.902344 C 82.9375 444.472656 98.515625 445.753906 113.382812 444.703125 C 119.03125 444.296875 124.988281 443.816406 128.789062 443.085938 C 128.789062 443.085938 110.644531 445.679688 93.972656 440.730469 C 82.125 437.222656 75.550781 433.96875 63.429688 426.039062 C 47.222656 415.441406 24.148438 387.777344 40.835938 369.929688 C 63.230469 345.980469 121.058594 362.1875 146.777344 401.949219 C 160.394531 423 174.605469 440.554688 195.820312 455.414062 C 212.597656 467.167969 231.027344 474.71875 251.132812 478.566406 C 298.230469 487.574219 352.957031 471.957031 352.957031 415.933594 " fill-opacity="1" fill-rule="nonzero"/></g></svg>